<svg width="42" height="41" viewBox="0 0 42 41" fill="none" xmlns="http://www.w3.org/2000/svg">
<g clip-path="url(#clip0_0_1679)">
<path d="M27 17H26V15C26 12.24 23.76 10 21 10C18.24 10 16 12.24 16 15V17H15C13.9 17 13 17.9 13 19V29C13 30.1 13.9 31 15 31H27C28.1 31 29 30.1 29 29V19C29 17.9 28.1 17 27 17ZM21 26C19.9 26 19 25.1 19 24C19 22.9 19.9 22 21 22C22.1 22 23 22.9 23 24C23 25.1 22.1 26 21 26ZM24.1 17H17.9V15C17.9 13.29 19.29 11.9 21 11.9C22.71 11.9 24.1 13.29 24.1 15V17Z" fill="white"/>
</g>
<defs>
<clipPath id="clip0_0_1679">
<rect width="24" height="24" fill="white" transform="translate(9 9)"/>
</clipPath>
</defs>
</svg>
