<svg width="42" height="41" viewBox="0 0 42 41" fill="none" xmlns="http://www.w3.org/2000/svg">
<g clip-path="url(#clip0_0_1671)">
<path d="M31 19H26.83L30.07 15.76L28.66 14.34L24 19H22V17L26.66 12.34L25.24 10.93L22 14.17V10H20V14.17L16.76 10.93L15.34 12.34L20 17V19H18L13.34 14.34L11.93 15.76L15.17 19H11V21H15.17L11.93 24.24L13.34 25.66L18 21H20V23L15.34 27.66L16.76 29.07L20 25.83V30H22V25.83L25.24 29.07L26.66 27.66L22 23V21H24L28.66 25.66L30.07 24.24L26.83 21H31V19Z" fill="white"/>
</g>
<defs>
<clipPath id="clip0_0_1671">
<rect width="24" height="24" fill="white" transform="translate(9 8)"/>
</clipPath>
</defs>
</svg>
