<svg width="42" height="41" viewBox="0 0 42 41" fill="none" xmlns="http://www.w3.org/2000/svg">
<path d="M30 17C30 12 26 8 21 8C16 8 12 12 12 17C12 20.1 13.6 22.9 16 24.5V27C16 28.3 16.8 29.4 18 29.8V30C18 31.7 19.3 33 21 33C22.7 33 24 31.7 24 30V29.8C25.2 29.4 26 28.3 26 27V24.5C28.4 22.9 30 20.1 30 17ZM14 17C14 13.1 17.1 10 21 10C24.9 10 28 13.1 28 17C28 20.5 25.4 23.4 22 23.9V21.4L23.7 19.7C24.1 19.3 24.1 18.7 23.7 18.3C23.3 17.9 22.7 17.9 22.3 18.3L21 19.6L19.7 18.3C19.3 17.9 18.7 17.9 18.3 18.3C17.9 18.7 17.9 19.3 18.3 19.7L20 21.4V23.9C16.6 23.4 14 20.5 14 17ZM21 31C20.4 31 20 30.6 20 30H22C22 30.6 21.6 31 21 31ZM24 27C24 27.6 23.6 28 23 28H19C18.4 28 18 27.6 18 27V25.5C18.9 25.8 19.9 26 21 26C22.1 26 23.1 25.8 24 25.5V27Z" fill="white"/>
</svg>
