<svg width="137" height="232" viewBox="0 0 137 232" fill="none" xmlns="http://www.w3.org/2000/svg">
<path d="M116.999 230L115.499 225L123.499 223.5C127.332 225.5 134.699 229.9 133.499 231.5C133.099 232.3 122.332 230.833 116.999 230Z" fill="#D06262"/>
<path d="M76.499 183L80.999 190.5C80.6657 195.667 79.599 205.8 77.999 205C76.399 204.2 71.3324 191.333 68.999 185L76.499 183Z" fill="#D06262"/>
<path d="M50.3275 137.993C44.9981 132.458 40.1555 122.024 38.4003 117.5C43.528 115.019 54.9235 109.352 59.4835 106.522C64.0435 103.693 72.6919 97.2737 76.4461 94.4178C78.6362 96.3922 85.009 101.262 92.9801 104.948C113.451 114.613 125.144 127.095 129.184 138.272C132.417 147.213 119.174 160.449 111.65 165.994C107.291 158.586 104.668 155.59 99.4996 148.534L101.256 140.338L90.932 137.271C92.4582 139.307 97.4599 146.01 105.257 156.54C119.327 174.125 124.199 204.172 124.877 216.997C122.252 217.573 115.789 218.636 110.936 218.279C110.363 212.05 102.558 198.211 95.1054 185.959C93.5889 187.773 91.4876 189.942 90.2637 190.054C84.0691 188.214 82.1502 180.089 81.9651 176.256L86.6467 172.335C86.0052 171.31 85.4047 170.349 84.855 169.463C77.1916 157.113 56.9892 144.912 50.3275 137.993Z" fill="#1F3F68"/>
<path d="M78.346 93.2389C63.8118 104.451 33.727 124.557 29.6611 115.291C24.5789 103.708 25.5746 103.616 22.7646 100.36C19.9545 97.1033 19.2676 89.6348 17.997 86.739C17.3585 85.2837 12.21 78.9169 8.09438 71.0802C8.09438 71.0802 7.97072 70.8534 7.76156 70.4388C4.83961 64.7368 2.53191 58.3203 2.91155 52.4766C3.20196 43.9141 9.71527 38.3913 9.71527 38.3913C13.5971 34.2529 17.2379 33.558 18.499 33.6695L18.5224 33.6853C21.5572 35.7492 26.0442 38.8005 27.6334 38.6543C29.2267 38.5078 31.499 35.5 32.999 34C40.6049 34.8068 42.9277 32.8586 48.8726 33.6695C56.2042 34.6695 75.999 45 91.4992 17.5C93.0387 17.8605 96.5095 19.229 98.999 19C90.4992 44 82.999 51.7812 75.999 54.2313C70.6266 56.1118 66.3941 56.636 63.0507 56.6017C62.4372 59.8634 61.6217 65.2243 60.2625 70.6913C63.0568 75.8066 66.0106 80.5054 68.3306 82.6116C74.357 88.0826 81.1621 91.1024 78.346 93.2389Z" fill="white"/>
<path d="M78.0601 122.89L91.4751 137.723L101.256 140.338L100.672 144.911C102.917 142.027 105.795 135.101 99.344 130.472C92.893 125.844 82.4668 123.489 78.0601 122.89Z" fill="black" fill-opacity="0.2"/>
<path d="M86.6228 172.313L94.9215 186.111L93.5652 187.742C92.3404 185.344 89.124 183.129 86.4056 180.869C84.2308 179.061 83.7748 175.922 83.8186 174.579L86.6228 172.313Z" fill="black" fill-opacity="0.2"/>
<path d="M48.0653 97.0282C33.8677 95.5223 16.6019 80.6746 9.74364 73.439C25.6024 87.5458 44.0305 91.374 49.8679 89.3308C54.5378 87.6962 58.1178 75.5268 59.9987 70.5L63.7973 77.0031C64.469 84.3056 62.2629 98.5342 48.0653 97.0282Z" fill="black" fill-opacity="0.2"/>
<path d="M42.9654 68.877C39.8176 69.4524 31.6719 62.5515 28.0168 59.2055C41.4717 69.0144 41.4985 64 58.4985 52C57.7603 53.0721 50.4985 67.5 42.9654 68.877Z" fill="black" fill-opacity="0.2"/>
<path d="M63.499 54.5C61.7862 54.1561 60.2951 53.5762 58.499 52L59.999 48.5C59.8324 47.6667 59.599 45.8 59.999 45C60.399 44.2 61.999 43.3333 62.499 43L61.999 45.5L64.499 42.5L68.499 46L67.999 49.5L64.999 51L63.499 54.5Z" fill="#F2994A"/>
<path d="M99.999 14L98.999 19C97.399 19.4 93.1657 18.1667 91.499 17.5C91.999 16 93.599 12 93.999 10C94.399 8 98.1657 5.83333 99.999 5H101.999L99.999 8.5V14Z" fill="#F2994A"/>
<path d="M15.9988 23.5C16.7988 25.1 18.9988 28.5 19.9988 30C20.6654 28.6667 21.5988 25.7 19.9988 24.5C18.3987 23.3 16.9988 21.3333 16.4988 20.5C16.9988 20.1667 18.2988 19.5 19.4988 19.5C18.6988 13.5 22.8321 11.3333 24.9988 11L33.4988 10.5L33.9988 13C37.1654 10 42.8988 3.49999 40.4988 1.49999C37.4988 -1.00001 28.4988 5.49999 22.4988 5.49999C16.4988 5.49999 13.9988 8.49999 12.4988 11.5C10.9988 14.5 14.9988 21.5 15.9988 23.5Z" fill="#316099"/>
<path d="M27.499 39C25.899 39 21.3324 35.8334 18.499 34C19.8324 33.3334 20.499 30.8 20.499 30C20.499 29 21.499 25 20.499 24.5C19.499 24 16.499 22 16.499 21C16.499 20.2 18.499 20 19.499 20C19.1657 18.3334 19.099 14.5 21.499 12.5C23.899 10.5 30.499 10.3334 33.499 10.5C33.6657 11.1667 34.299 14 35.499 20C36.699 26 33.999 28.8334 32.499 29.5L32.999 34C31.8324 35.5 29.099 39 27.499 39Z" fill="#F2994A"/>
<path d="M123.499 223.5L122.999 217.5C119.468 218.446 117.37 218.613 113.499 218.5L115.499 225L123.499 223.5Z" fill="#98C3E8"/>
<path d="M80.999 190.5L86.999 188.5C84.3208 185.423 83.4197 183.668 82.499 180.5L76.499 183L80.999 190.5Z" fill="#98C3E8"/>
</svg>
