<svg width="106" height="124" viewBox="0 0 106 124" fill="none" xmlns="http://www.w3.org/2000/svg">
<path d="M49.4316 56.5419C53.6691 60.8725 66.0121 77.7265 66.0121 77.7265L58.4298 88.7672L51.6119 66.8336L49.4316 56.5419Z" fill="url(#paint0_linear_6_6)"/>
<path d="M62.3956 110.553C61.7698 110.879 61.1336 111.19 60.4924 111.491C60.1999 111.633 59.9127 111.766 59.6151 111.898C57.758 112.744 55.8531 113.503 53.9002 114.176C52.3612 114.685 50.7811 115.195 49.1857 115.612C39.9826 118.044 30.3626 118.494 20.9702 116.932C19.857 116.749 18.7591 116.54 17.6664 116.3C13.665 119.041 9.97131 121.359 7.52426 122.414L7.72434 120.718L8.55541 113.62L10.4792 97.1077L18.1025 89.7863L0.962891 91.1059C0.962891 91.1059 2.76355 66.2936 9.79176 61.1885C16.82 56.0834 24.1919 51.5082 24.1919 51.5082C25.0714 52.0842 26.0402 52.5128 27.0596 52.7768V52.7768C29.4973 53.446 32.0311 53.7027 34.5547 53.536C37.5609 53.3984 40.5671 50.6217 40.7108 50.479C40.7108 50.479 45.4304 51.4114 49.4319 56.5623C51.4276 59.2139 52.8605 62.2403 53.6437 65.4581C54.6287 69.2232 56.378 78.017 58.3685 88.6399C59.6716 95.4773 61.0413 103.059 62.3956 110.553Z" fill="url(#paint1_linear_6_6)"/>
<path d="M66.0124 77.7469L73.3279 86.2605L99.0553 60.898L100.03 55.7063L105.16 51.2788L102.877 58.0296V66.8234C102.877 66.8234 83.0341 98.7685 77.5654 100.414C71.1682 102.345 58.4404 88.757 58.4404 88.757L66.0124 77.7469Z" fill="url(#paint2_linear_6_6)"/>
<path d="M39.3057 89.3888L45.272 103.655L52.9825 100.363L47.3291 86.4032L39.3057 89.3888Z" fill="#7E57C2"/>
<path d="M47.616 98.6055C46.6566 99.3901 45.2254 99.2067 43.4503 99.2984C41.0656 99.3608 38.7784 100.251 36.9864 101.815C34.6009 103.807 27.9318 109.02 21.2627 113.778C20.052 114.639 18.8413 115.49 17.6717 116.326C13.6702 119.067 9.97655 121.385 7.5295 122.439C6.88616 122.757 6.19148 122.958 5.47747 123.036C2.05057 123.122 1.31698 115.989 1.10664 110.298C1.03995 108.408 1.02456 106.681 0.988646 105.433C0.845003 100.44 0.988646 91.167 0.988646 91.167L18.1283 89.8423L16.3122 101.632L15.9941 103.716V103.731L21.1242 101.846L21.2833 101.79L39.4951 95.0697L40.7519 92.9145L41.5522 94.9525H41.6292L49.4269 93.9335C49.4269 93.9335 49.5603 97.021 47.616 98.6055Z" fill="url(#paint3_linear_6_6)"/>
<path d="M43.6808 24.2503C43.2345 23.0377 42.8497 22.2123 42.7369 21.9678V21.9066C42.7369 21.9066 42.3418 22.8747 39.3664 22.6403C36.3909 22.4059 35.406 20.9386 35.406 20.9386C35.406 20.9386 36.3396 24.1178 32.7948 25.4782C29.3832 26.7927 28.0392 25.9418 27.9468 25.8807C28.1264 26.0743 30.794 28.907 29.0241 31.1539C27.1927 33.4823 23.0732 33.0237 23.0732 33.0237V33.0543C23.5917 34.2203 24.1722 35.3581 24.8123 36.4628C25.1509 37.0436 25.4844 37.5786 25.8384 38.0779V38.1136C26.7469 39.5814 27.9737 40.8294 29.4294 41.7666C28.7896 45.4951 26.9521 48.9178 24.1916 51.5234V51.5234C25.1203 52.0046 26.078 52.4283 27.0593 52.792C28.9728 53.5104 31.543 54.2237 33.8362 54.025C36.4932 53.7428 38.9484 52.4855 40.7207 50.4993L39.5459 46.0209L38.4891 41.9857C48.0414 39.5656 45.4148 29.0395 43.6808 24.2503ZM37.9556 42.1334L38.1249 42.0927L38.3968 42.0163C38.0011 42.1863 37.5831 42.2995 37.1553 42.3525C37.3759 42.2965 37.6016 42.2353 37.8376 42.164L37.9556 42.1334Z" fill="url(#paint4_linear_6_6)"/>
<path d="M49.4323 21.7742C45.4924 25.3712 43.7892 24.3573 43.6814 24.2605V24.2503C43.2351 23.0378 42.8504 22.2124 42.7426 21.9678L42.717 21.9067C42.717 21.9067 42.3169 22.8747 39.3414 22.6404C36.366 22.406 35.3861 20.9387 35.3861 20.9387C35.3861 20.9387 36.3198 24.1179 32.7749 25.4782C29.3583 26.7927 28.0142 25.9419 27.927 25.8807C28.1065 26.0692 30.7742 28.902 29.0043 31.1489C27.1728 33.4772 23.0534 33.0238 23.0534 33.0238V33.0493C23.5716 34.217 24.1522 35.3565 24.7925 36.4628C25.1345 37.0403 25.4765 37.5787 25.8185 38.078V38.1136C25.8185 38.1136 24.4129 40.8598 21.9042 40.8037C19.3956 40.7477 19.3392 38.2563 19.3392 38.2563C19.3392 38.2563 17.5642 41.4355 12.0801 38.3734C6.59608 35.3114 10.2538 30.8737 10.2538 30.8737C10.2538 30.8737 6.36523 27.9187 6.36523 23.4912C6.36523 19.0637 12.4187 15.696 12.4187 15.696C12.4187 15.696 10.2538 10.5552 13.9064 7.72244C17.5591 4.88967 23.0483 6.81045 23.0483 6.81045C23.0483 6.81045 22.9405 0.232921 28.5323 0.339914C34.1241 0.446908 35.3912 3.84522 35.3912 3.84522C35.3912 3.84522 40.4187 -0.0167285 45.3949 3.62104C50.3711 7.25881 48.3242 13.602 48.3242 13.602C48.3242 13.602 53.5415 18.0295 49.4323 21.7742Z" fill="url(#paint5_linear_6_6)"/>
<path opacity="0.15" d="M39.587 46.0057C37.2016 45.2567 32.959 42.3985 32.959 42.3985C34.6333 42.5742 36.325 42.4848 37.9711 42.1335L38.1404 42.0928L38.4687 41.996H38.5149L39.587 46.0057Z" fill="black"/>
<path opacity="0.15" d="M20.4165 74.5474L18.1028 89.8321L16.2868 101.622L12.0596 105.112L21.2578 101.795C21.2578 101.795 18.8723 95.0289 20.4165 74.5474Z" fill="black"/>
<path opacity="0.15" d="M17.6562 116.3C18.749 116.54 19.8468 116.749 20.96 116.932C21.0165 115.888 21.1191 114.833 21.2627 113.778L17.6562 116.3Z" fill="black"/>
<defs>
<linearGradient id="paint0_linear_6_6" x1="44.4093" y1="52.1653" x2="62.5594" y2="84.279" gradientUnits="userSpaceOnUse">
<stop stop-color="#E57373"/>
<stop offset="1" stop-color="#AD1457"/>
</linearGradient>
<linearGradient id="paint1_linear_6_6" x1="28051.2" y1="39710.5" x2="26139.2" y2="49211.9" gradientUnits="userSpaceOnUse">
<stop stop-color="#E57373"/>
<stop offset="1" stop-color="#AD1457"/>
</linearGradient>
<linearGradient id="paint2_linear_6_6" x1="112.122" y1="63.9397" x2="62.5887" y2="92.833" gradientUnits="userSpaceOnUse">
<stop stop-color="#FFF8E1"/>
<stop offset="1" stop-color="#FFCC80"/>
</linearGradient>
<linearGradient id="paint3_linear_6_6" x1="21562.4" y1="22235.6" x2="18891.7" y2="20422.4" gradientUnits="userSpaceOnUse">
<stop stop-color="#FFF8E1"/>
<stop offset="1" stop-color="#FFCC80"/>
</linearGradient>
<linearGradient id="paint4_linear_6_6" x1="48.7031" y1="29.4387" x2="21.6613" y2="40.652" gradientUnits="userSpaceOnUse">
<stop stop-color="#FFF8E1"/>
<stop offset="1" stop-color="#FFCC80"/>
</linearGradient>
<linearGradient id="paint5_linear_6_6" x1="42.4861" y1="0.146307" x2="11.0533" y2="42.9109" gradientUnits="userSpaceOnUse">
<stop stop-color="#FFB74D"/>
<stop offset="1" stop-color="#F4511E"/>
</linearGradient>
</defs>
</svg>
