<svg width="116" height="116" viewBox="0 0 116 116" fill="none" xmlns="http://www.w3.org/2000/svg">
<path d="M50.9449 48.1711C50.9449 48.1711 36.1674 41.2251 34.8832 31.6673C33.5991 22.1096 34.5011 12.9761 41.8644 10.42C41.8644 10.42 46.5219 -4.30059 63.0319 1.61492C79.542 7.53043 76.9381 25.2921 85.9626 27.4189C94.9871 29.5456 111.839 20.589 115.054 31.5158C118.269 42.4426 107.696 41.7757 100.669 51.0506C93.6418 60.3255 104.496 65.1953 102.508 71.5806C100.521 77.9659 93.0151 82.3558 93.0151 82.3558L50.9449 48.1711Z" fill="url(#paint0_linear_6_11)"/>
<path d="M30.71 69.1357L34.8833 80.3857H35.3369L41.8645 51.0507C37.742 54.6323 30.71 69.1357 30.71 69.1357Z" fill="url(#paint1_linear_6_11)"/>
<path d="M23.3821 84.6544L20.7374 85.9729C17.4558 87.9228 12.5537 87.3672 12.5537 87.3672C15.2035 90.3224 30.1237 93.6666 34.3175 93.5807L35.092 83.1136H25.7975L23.3821 84.6544Z" fill="url(#paint2_linear_6_11)"/>
<path d="M92.6791 109.468L92.5772 109.519L92.2256 109.685C91.9352 109.827 91.6498 109.958 91.3542 110.09C89.5096 110.928 87.6174 111.681 85.6776 112.348C84.577 112.728 83.4644 113.08 82.3399 113.403L80.9947 113.772C66.0268 117.724 50.1355 116.353 36.0811 109.898C35.5053 109.63 34.9295 109.357 34.3639 109.074L33.3447 108.569C33.4874 104.235 33.7065 99.0466 34.0275 93.5757C34.2314 90.1557 34.4811 86.6246 34.7766 83.1187C34.8531 82.2043 34.9346 81.295 35.0161 80.3857C36.2187 67.4636 38.1449 55.481 41.2329 51.672L41.2787 51.6215C41.6708 51.0866 42.2239 50.6887 42.8584 50.4849C47.3172 49.4341 50.4612 49.0805 50.9555 48.1712C51.4498 47.2619 50.9555 45.4736 50.9555 45.4736L51.8421 45.3524C53.1314 45.1604 55.6333 44.7563 58.0029 44.1501C58.0178 44.1547 58.0338 44.1547 58.0487 44.1501C60.143 43.6096 62.1253 42.9124 63.0935 42.0739L65.0808 47.3124C65.0808 47.3124 80.0265 45.4383 85.8611 51.0709C85.897 51.0971 85.9295 51.1277 85.9579 51.1618C86.0195 51.2169 86.0773 51.276 86.1311 51.3386C86.4781 51.7025 86.7872 52.1003 87.0535 52.5258C88.9542 55.5568 90.2994 67.7212 91.2319 80.9162C91.446 83.9472 91.6396 87.0792 91.8078 90.1456C92.195 97.228 92.4855 104.088 92.6791 109.468Z" fill="url(#paint3_linear_6_11)"/>
<path opacity="0.15" d="M92.5775 109.534L92.2259 109.701C91.9354 109.842 91.6501 109.973 91.3545 110.105C89.5099 110.943 87.6177 111.696 85.6779 112.363C84.5772 112.743 83.4647 113.095 82.3402 113.419C75.4559 106.149 72.7246 96.7127 72.7246 96.7127L91.7978 90.1455L92.5775 109.534Z" fill="black"/>
<path d="M85.8555 51.0507C92.7602 57.7694 94.2634 71.8737 92.9895 82.371C91.7156 92.8684 89.3512 102.699 84.4389 102.396C79.5266 102.093 62.5274 90.4032 55.959 84.028L59.7961 76.7283L73.6768 82.462V67.1807L85.8555 51.0507Z" fill="url(#paint4_linear_6_11)"/>
<path d="M85.8555 51.0507C92.7602 57.7694 94.2634 71.8737 92.9895 82.371C91.7156 92.8684 89.3512 102.699 84.4389 102.396C79.5266 102.093 62.5274 90.4032 55.959 84.028L59.7961 76.7283L73.6768 82.462V67.1807L85.8555 51.0507Z" fill="url(#paint5_linear_6_11)"/>
<path d="M0.99707 83.1187C0.99707 83.1187 9.35402 87.2661 14.6638 87.3671C19.9735 87.4681 25.803 83.1187 25.803 83.1187H0.99707Z" fill="url(#paint6_linear_6_11)"/>
<path d="M59.7963 76.7283C59.7963 76.7283 52.4483 73.0507 49.2839 72.6465C46.1194 72.2424 36.2949 80.3857 36.2949 80.3857H50.1552L55.9745 84.0279L59.7963 76.7283Z" fill="url(#paint7_linear_6_11)"/>
<path d="M62.4713 33.789C62.5078 36.5552 62.712 39.3167 63.0828 42.0586C59.7961 43.8924 55.9488 44.8775 51.8315 45.3574L51.592 42.0586L51.4493 40.038V39.9723C50.6556 39.9546 49.8732 39.783 49.1461 39.4671C44.1726 37.3404 43.1025 26.944 43.1025 26.944C45.095 26.8632 47.6887 23.3018 47.6887 23.3018C49.141 25.5043 55.8775 29.7578 59.7859 28.6161C63.6943 27.4744 63.3885 24.7415 63.3885 24.7415C64.0954 25.037 64.7069 25.5193 65.1562 26.1357C65.6055 26.7522 65.8754 27.4791 65.9364 28.2372C66.1453 30.9045 62.4713 33.789 62.4713 33.789Z" fill="url(#paint8_linear_6_11)"/>
<path opacity="0.15" d="M59.1343 36.7241C58.212 38.2699 54.0386 40.7301 51.5978 42.0688L51.4551 40.0481C51.6079 40.0481 51.7557 39.9976 51.8984 39.9673C53.8911 39.6177 55.8038 38.9143 57.5444 37.8911C57.5652 37.883 57.5843 37.871 57.6005 37.8557C58.1236 37.5491 58.6136 37.1903 59.063 36.7847L59.1343 36.7241Z" fill="black"/>
<path opacity="0.15" d="M67.9492 80.1029L78.7623 84.4877L73.6666 80.8455V67.2059C73.6666 67.2059 72.0716 79.0572 67.9492 80.1029Z" fill="black"/>
<defs>
<linearGradient id="paint0_linear_6_11" x1="34.3992" y1="41.2807" x2="115.655" y2="41.2807" gradientUnits="userSpaceOnUse">
<stop stop-color="#EF9A9A"/>
<stop offset="1" stop-color="#D81B60"/>
</linearGradient>
<linearGradient id="paint1_linear_6_11" x1="35.6834" y1="66.8826" x2="33.2742" y2="94.5138" gradientUnits="userSpaceOnUse">
<stop stop-color="#7E57C2"/>
<stop offset="1" stop-color="#4527A0"/>
</linearGradient>
<linearGradient id="paint2_linear_6_11" x1="6772.02" y1="2511.43" x2="6748.49" y2="3087.43" gradientUnits="userSpaceOnUse">
<stop stop-color="#7E57C2"/>
<stop offset="1" stop-color="#4527A0"/>
</linearGradient>
<linearGradient id="paint3_linear_6_11" x1="20300.2" y1="14842" x2="24427.7" y2="22476.9" gradientUnits="userSpaceOnUse">
<stop stop-color="#7E57C2"/>
<stop offset="1" stop-color="#4527A0"/>
</linearGradient>
<linearGradient id="paint4_linear_6_11" x1="13919.4" y1="9754.53" x2="17583.5" y2="15910.1" gradientUnits="userSpaceOnUse">
<stop stop-color="#7E57C2"/>
<stop offset="1" stop-color="#4527A0"/>
</linearGradient>
<linearGradient id="paint5_linear_6_11" x1="77.7584" y1="56.7489" x2="72.0378" y2="103.812" gradientUnits="userSpaceOnUse">
<stop offset="0.14" stop-color="#7E57C2" stop-opacity="0"/>
<stop offset="0.26" stop-color="#724DBB" stop-opacity="0.21"/>
<stop offset="0.48" stop-color="#5F3DAF" stop-opacity="0.55"/>
<stop offset="0.66" stop-color="#5131A7" stop-opacity="0.79"/>
<stop offset="0.81" stop-color="#482AA2" stop-opacity="0.94"/>
<stop offset="0.91" stop-color="#4527A0"/>
</linearGradient>
<linearGradient id="paint6_linear_6_11" x1="2.57674" y1="78.557" x2="22.884" y2="87.3382" gradientUnits="userSpaceOnUse">
<stop stop-color="#FFF8E1"/>
<stop offset="1" stop-color="#FFCC80"/>
</linearGradient>
<linearGradient id="paint7_linear_6_11" x1="7834.06" y1="2925.73" x2="8352.29" y2="3493.97" gradientUnits="userSpaceOnUse">
<stop stop-color="#FFF8E1"/>
<stop offset="1" stop-color="#FFCC80"/>
</linearGradient>
<linearGradient id="paint8_linear_6_11" x1="8003.47" y1="3211.22" x2="8458.41" y2="4072.69" gradientUnits="userSpaceOnUse">
<stop stop-color="#FFF8E1"/>
<stop offset="1" stop-color="#FFCC80"/>
</linearGradient>
</defs>
</svg>
