<svg width="133" height="103" viewBox="0 0 133 103" fill="none" xmlns="http://www.w3.org/2000/svg">
<path d="M65.8538 77.7422L58.623 66.3554C58.623 66.3554 78.6539 43.0115 80.6586 41.6321C80.6586 41.6321 70.5547 58.72 65.8538 77.7422Z" fill="url(#paint0_linear_6_4)"/>
<path d="M58.623 66.3553L44.9896 78.5719L19.9093 66.3553L0.72168 67.4141C0.72168 67.4141 12.6735 71.4863 16.0364 71.3183L19.4044 71.1503C19.4044 71.1503 40.0008 91.1702 44.7372 92.6973C49.4735 94.2244 65.0306 82.2522 65.0306 82.2522L65.9345 77.7778L58.623 66.3553Z" fill="url(#paint1_linear_6_4)"/>
<path d="M96.2406 38.8681C94.346 39.7928 92.3088 40.385 90.2167 40.6191C87.798 40.9856 84.1221 39.6316 84.1221 39.6316C86.8992 37.4276 86.2529 32.2304 86.2529 32.2304L86.3135 32.1999C89.2775 31.9708 91.7567 30.2758 93.4887 28.6367C92.8625 33.0856 96.2406 38.8681 96.2406 38.8681Z" fill="url(#paint2_linear_6_4)"/>
<path d="M96.2408 22.3146V25.3688C95.4516 26.5553 94.5299 27.6466 93.494 28.6214C91.762 30.2656 89.2828 31.9606 86.3188 32.1846C84.9725 32.2883 83.6201 32.0884 82.3601 31.5992C74.2811 28.5451 79.9616 12.3836 79.9616 12.3836C82.5267 5.807 94.1403 8.9884 94.1403 8.9884C95.6955 10.8565 95.9934 16.074 95.9328 16.583C95.674 17.2982 95.3352 17.9813 94.923 18.6191C94.923 18.6191 97.1295 16.5219 97.8869 17.9167C98.6444 19.3114 96.2408 22.3146 96.2408 22.3146Z" fill="url(#paint3_linear_6_4)"/>
<path d="M96.241 25.379V22.3249C96.241 22.3249 98.6394 19.3471 97.882 17.9422C97.1246 16.5373 94.918 18.6446 94.918 18.6446C95.3302 18.0068 95.669 17.3237 95.9279 16.6085C95.9885 16.0995 95.736 11.1772 94.1354 9.01389C94.1354 9.01389 82.5218 5.8325 79.9567 12.4091C79.9567 12.4091 76.6342 11.559 73.7712 7.57336C69.0904 1.05277 74.6801 0.253598 80.2193 1.51089C86.94 3.03796 93.6759 -1.97083 101.376 3.1194C109.076 8.20964 102.174 19.7797 96.241 25.379Z" fill="#262F72"/>
<path d="M113.707 63.4591C117.161 73.8228 119.721 85.8205 121.468 95.7006C120.842 96.0315 120.206 96.3471 119.564 96.6525C119.276 96.795 118.994 96.9274 118.701 97.0597C116.873 97.9047 114.998 98.6632 113.076 99.3351C111.561 99.8695 110.006 100.353 108.435 100.771C93.6036 104.752 77.8567 103.371 63.9302 96.8663C63.3596 96.5965 62.789 96.3216 62.2285 96.0366C63.2384 90.8089 64.4401 84.665 65.8489 77.7474C66.3606 75.2396 66.8975 72.63 67.4597 69.9186C70.353 56.0273 74.5036 48.4633 77.9321 44.3656L77.9674 44.3249C78.6187 43.5459 79.3241 42.8144 80.0781 42.1361C80.0991 42.1114 80.1229 42.0893 80.1488 42.0699C80.3205 41.9172 80.4921 41.7747 80.6537 41.6372C82.7189 39.9422 84.1226 39.6317 84.1226 39.6317L84.2489 39.6775H84.3196C85.4163 40.1135 86.566 40.3994 87.738 40.5276H87.9349H87.9652C88.7138 40.5998 89.4668 40.6117 90.2173 40.5632H90.2627C92.3467 40.4293 94.3766 39.8387 96.2109 38.8325C98.3617 39.5497 100.388 40.6026 102.215 41.9528C107.436 45.8163 117.954 59.9825 117.954 59.9825L113.707 63.4591Z" fill="url(#paint4_linear_6_4)"/>
<path d="M132.939 82.8019C132.909 84.217 131.632 87.0879 129.763 90.5696C127.127 92.4867 124.352 94.2018 121.462 95.7005C120.836 96.0314 120.2 96.347 119.558 96.6524C119.271 96.7949 118.988 96.9273 118.695 97.0596C116.867 97.9046 114.992 98.6631 113.07 99.335L117.948 83.6621L105.324 70.3003L113.701 63.459L117.948 59.9926C117.948 59.9926 133.071 77.3299 132.939 82.8019Z" fill="url(#paint5_linear_6_4)"/>
<defs>
<linearGradient id="paint0_linear_6_4" x1="71.2314" y1="39.2091" x2="67.3835" y2="74.4524" gradientUnits="userSpaceOnUse">
<stop stop-color="#42A5F5"/>
<stop offset="1" stop-color="#1565C0"/>
</linearGradient>
<linearGradient id="paint1_linear_6_4" x1="27.5339" y1="76.322" x2="69.4553" y2="81.8333" gradientUnits="userSpaceOnUse">
<stop stop-color="#FFE082"/>
<stop offset="1" stop-color="#FFA726"/>
</linearGradient>
<linearGradient id="paint2_linear_6_4" x1="9382.78" y1="2515.52" x2="9385.77" y2="2286.66" gradientUnits="userSpaceOnUse">
<stop stop-color="#FFE082"/>
<stop offset="1" stop-color="#FFA726"/>
</linearGradient>
<linearGradient id="paint3_linear_6_4" x1="14952.3" y1="4046.82" x2="15745.5" y2="4046.82" gradientUnits="userSpaceOnUse">
<stop stop-color="#FFE082"/>
<stop offset="1" stop-color="#FFA726"/>
</linearGradient>
<linearGradient id="paint4_linear_6_4" x1="42913.6" y1="15074.6" x2="48812.7" y2="20744.6" gradientUnits="userSpaceOnUse">
<stop stop-color="#42A5F5"/>
<stop offset="1" stop-color="#1565C0"/>
</linearGradient>
<linearGradient id="paint5_linear_6_4" x1="22974.9" y1="12236.9" x2="22571.5" y2="9718.27" gradientUnits="userSpaceOnUse">
<stop stop-color="#FFE082"/>
<stop offset="1" stop-color="#FFA726"/>
</linearGradient>
</defs>
</svg>
