<svg width="785" height="618" viewBox="0 0 785 618" fill="none" xmlns="http://www.w3.org/2000/svg">
<path opacity="0.2" d="M178.803 127.5C183.803 140 168.804 159.5 147.304 166C128.804 171.593 110.803 171 105.803 158C101.38 146.5 115.303 134 131.303 127.5C147.303 121 173.803 115 178.803 127.5Z" fill="#98C3E8"/>
<path opacity="0.2" d="M342.304 102C338.413 92.0604 352.12 68.8658 369.106 63.7986C383.723 59.4383 397.415 49.1637 401.304 59.5C404.744 68.6437 394.212 89.3246 381.564 94.415C368.916 99.5054 346.195 111.94 342.304 102Z" fill="#98C3E8"/>
<path opacity="0.2" d="M331.096 594.215C327.205 584.276 339.119 568.866 356.106 563.799C370.722 559.438 384.918 559.985 388.807 570.321C392.247 579.465 381.212 589.325 368.564 594.415C355.916 599.505 334.987 604.155 331.096 594.215Z" fill="#98C3E8"/>
<path opacity="0.2" d="M506.876 543.55C498.782 524.52 524.582 482.235 559.877 472.55C590.246 464.216 639.286 481.26 647.376 501.05C654.533 518.555 607.656 515.66 581.378 525.393C555.099 535.126 514.971 562.579 506.876 543.55Z" fill="#98C3E8"/>
<path d="M51.8122 177.467C125.64 214.697 208.301 318.904 208.301 368.662C208.301 429.869 78.5247 523.678 19 576.893L526.959 609.705C508.87 528.726 463.198 348.7 490.991 308.716C526.959 256.974 672.51 269.594 754.12 279.059L776.205 48.7424C736.452 65.3588 647.48 113.105 598.893 100.485C553.919 88.8031 467.644 38.4359 431.046 6.46506" stroke="white" stroke-opacity="0.2" stroke-width="15"/>
<path d="M241.745 120.677C261.937 225.844 316.835 418.637 374.887 348.469C447.453 260.76 504.874 147.179 559.14 222.269C602.553 282.34 666.411 400.843 692.913 452.585" stroke="white" stroke-opacity="0.2" stroke-width="15"/>
<path fill-rule="evenodd" clip-rule="evenodd" d="M469.304 182C469.304 186.418 465.722 190 461.304 190C456.885 190 453.304 186.418 453.304 182C453.304 177.582 456.885 174 461.304 174C465.722 174 469.304 177.582 469.304 182ZM138.304 355C142.722 355 146.304 351.418 146.304 347C146.304 342.582 142.722 339 138.304 339C133.885 339 130.304 342.582 130.304 347C130.304 351.418 133.885 355 138.304 355ZM312.304 457C316.722 457 320.304 453.418 320.304 449C320.304 444.582 316.722 441 312.304 441C307.885 441 304.304 444.582 304.304 449C304.304 453.418 307.885 457 312.304 457ZM586.304 339C590.722 339 594.304 335.418 594.304 331C594.304 326.582 590.722 323 586.304 323C581.885 323 578.304 326.582 578.304 331C578.304 335.418 581.885 339 586.304 339Z" fill="white" fill-opacity="0.6"/>
<circle cx="108.304" cy="434" r="18" stroke="white" stroke-opacity="0.4" stroke-width="8"/>
<circle cx="688.304" cy="157" r="18" stroke="white" stroke-opacity="0.4" stroke-width="8"/>
<circle cx="438.304" cy="390" r="18" stroke="white" stroke-opacity="0.4" stroke-width="8"/>
</svg>
