<svg width="276" height="342" viewBox="0 0 276 342" fill="none" xmlns="http://www.w3.org/2000/svg">
<g filter="url(#filter0_d_113_30)">
<rect x="50" y="50" width="88" height="88" rx="10" fill="white"/>
</g>
<g clip-path="url(#clip0_113_30)">
<path d="M90 110V98H98V110H108V94H114L94 76L74 94H80V110H90Z" fill="#5A98D0"/>
</g>
<path d="M97.3905 133C96.2741 137.364 97.7871 139.88 98.9775 140.5C101.34 141.73 103.977 143.27 103.977 143.27C103.977 143.27 120.406 171.414 125.168 173.429C130.724 175.778 143.422 177 143.422 177L148.978 165.889C148.978 165.889 136.279 163.111 130.724 161.921C126.98 161.118 110.486 143.27 110.486 143.27L113.66 137.714H107.708C103.343 134.54 100.977 128 100.977 128C100.977 128 98.1528 130.02 97.3905 133Z" fill="url(#paint0_linear_113_30)"/>
<path d="M162.478 183.5C160.478 181.5 148.978 178.333 143.478 177L148.978 166C151.144 166 157.478 165.5 165.478 163.5C175.478 161 178.978 152 190.478 161.5C199.678 169.1 215.644 202.333 222.478 218C211.731 228.243 204.594 231.569 190.478 234.5C189.644 232.833 187.178 227.2 183.978 218C179.978 206.5 167.478 206.5 165.478 202.5C163.478 198.5 164.978 186 162.478 183.5Z" fill="url(#paint1_linear_113_30)"/>
<path d="M198.478 297C194.878 289 194.811 251 193.478 233.5C205.671 231.103 212.111 228.016 222.478 217.5C222.478 217.5 239.478 225.5 238.478 244C237.478 262.5 244.998 271.841 249.478 278C253.478 283.5 262.978 295.167 267.978 303L262.978 312.5C257.478 306.667 241.378 294.8 232.978 288C224.578 281.2 221.811 264.167 220.478 255C219.644 264.667 215.478 282.4 217.478 288C219.478 293.6 240.978 310.5 249.478 319L246.478 327.5C231.978 320.667 202.078 305 198.478 297Z" fill="url(#paint2_linear_113_30)"/>
<path d="M156.477 149.5C156.877 147.9 156.311 143.167 156.978 141.5C161.778 142.3 164.477 145.667 165.477 147C166.477 146.833 167.912 146.369 168.477 147.5C168.977 148.5 168.477 150.5 166.977 152L170.477 161.5C168.819 162.577 167.809 162.939 165.977 163.5C166.977 161 166.477 159 165.977 158C162.377 160.8 160.977 160.667 159.477 160.5L157.977 154L155.478 154.5C155.978 153.667 156.077 151.1 156.477 149.5Z" fill="url(#paint3_linear_113_30)"/>
<path d="M165.477 147C163.477 144.2 158.644 142.167 156.477 141.5C152.477 138.5 154.477 132 163.977 129C173.477 126 177.477 134 179.477 136C181.477 138 182.477 144.5 191.477 148.5C200.477 152.5 199.977 147.5 205.477 147.5C210.977 147.5 213.477 151 212.477 154C211.477 157 210.977 160.5 216.977 164.5C222.977 168.5 217.477 174 216.977 180C216.477 186 208.477 183 199.977 183C191.477 183 192.977 183 191.477 177.5C189.977 172 187.477 170 184.477 168.5C181.477 167 174.477 168 172.977 166.5C171.777 165.3 168.477 156.333 166.977 152C167.644 151 168.877 148.7 168.477 147.5C168.077 146.3 166.31 146.667 165.477 147Z" fill="#F2994A"/>
<path d="M146.478 207.5L170.478 206C173.278 206.4 177.978 209.833 179.978 211.5C179.311 213 177.378 216 174.978 216C172.578 216 154.978 213 146.478 211.5H144.478V204L146.478 207.5Z" fill="url(#paint4_linear_113_30)"/>
<path d="M144.478 215V198H135.978V215H144.478Z" fill="#F2C94C"/>
<path d="M262.978 341.5C260.578 341.1 250.811 331.833 246.478 327.5L249.478 319C251.478 319.833 255.678 321.3 256.478 322.5C257.478 324 265.978 342 262.978 341.5Z" fill="#5A98D0"/>
<path d="M274.978 330.5C273.778 328.5 266.478 318.833 262.978 312.5L267.978 303C270.311 305 270.478 305 272.978 308.5C274.14 310.127 276.478 333 274.978 330.5Z" fill="#5A98D0"/>
<path opacity="0.2" d="M223.478 240.5L220.478 255.5C220.978 261 223.978 274.5 228.978 284C222.978 265 224.978 250.833 223.478 240.5Z" fill="black"/>
<defs>
<filter id="filter0_d_113_30" x="0" y="0" width="188" height="188" filterUnits="userSpaceOnUse" color-interpolation-filters="sRGB">
<feFlood flood-opacity="0" result="BackgroundImageFix"/>
<feColorMatrix in="SourceAlpha" type="matrix" values="0 0 0 0 0 0 0 0 0 0 0 0 0 0 0 0 0 0 127 0" result="hardAlpha"/>
<feOffset/>
<feGaussianBlur stdDeviation="25"/>
<feColorMatrix type="matrix" values="0 0 0 0 0.0627451 0 0 0 0 0.439216 0 0 0 0 0.694118 0 0 0 0.25 0"/>
<feBlend mode="normal" in2="BackgroundImageFix" result="effect1_dropShadow_113_30"/>
<feBlend mode="normal" in="SourceGraphic" in2="effect1_dropShadow_113_30" result="shape"/>
</filter>
<linearGradient id="paint0_linear_113_30" x1="156.735" y1="140.576" x2="104.964" y2="174.395" gradientUnits="userSpaceOnUse">
<stop stop-color="#FFF8E1"/>
<stop offset="1" stop-color="#FFCC80"/>
</linearGradient>
<linearGradient id="paint1_linear_113_30" x1="182.978" y1="157.241" x2="182.978" y2="234.5" gradientUnits="userSpaceOnUse">
<stop stop-color="#AF6CED"/>
<stop offset="1" stop-color="#5E199D"/>
</linearGradient>
<linearGradient id="paint2_linear_113_30" x1="230.728" y1="217.5" x2="230.728" y2="327.5" gradientUnits="userSpaceOnUse">
<stop stop-color="#EB5757"/>
<stop offset="1" stop-color="#872727"/>
</linearGradient>
<linearGradient id="paint3_linear_113_30" x1="172.716" y1="147.146" x2="154.595" y2="154.755" gradientUnits="userSpaceOnUse">
<stop stop-color="#FFF8E1"/>
<stop offset="1" stop-color="#FFCC80"/>
</linearGradient>
<linearGradient id="paint4_linear_113_30" x1="185.276" y1="207.08" x2="173.596" y2="228.359" gradientUnits="userSpaceOnUse">
<stop stop-color="#FFF8E1"/>
<stop offset="1" stop-color="#FFCC80"/>
</linearGradient>
<clipPath id="clip0_113_30">
<rect width="48" height="48" fill="white" transform="translate(70 70)"/>
</clipPath>
</defs>
</svg>
